
<svg xmlns="http://www.w3.org/2000/svg" width="100" height="100"><path d="M46.82-.055h6.25q23.969 2.062 38 21.426c5.258 7.676 8.215 16.156 8.875 25.45v6.25q-2.064 23.968-21.43 38-11.512 7.885-25.445 8.874h-6.25q-23.97-2.064-38.004-21.43Q.971 67.056-.054 53.18v-6.473C1.362 30.781 8.503 18.148 21.37 8.817 29.047 3.562 37.527.604 46.821-0056" style="stroke:none;fill-rule:evenodd;fill:#ececec;fill-opacity:1"/><path d="M47.266 2.957q22.53-.65 37.777 15.738a49.7 49.7 0 0 1 6.867 10.157q-41.964.222-83.93 0 9.75-18.616 30.024-24.387a61 61 0 0 1 9.262-1.508" style="stroke:none;fill-rule:evenodd;fill:#191919;fill-opacity:1"/><path d="M7.98 70.926c27.977-.035 55.954 0 83.93.113Q83.426 87.473 66.13 94.086q-18.81 6.544-36.832-1.898-14.203-7.09-21.317-21.262" style="stroke:none;fill-rule:evenodd;fill:#f9af00;fill-opacity:1"/></svg>